<svg width="32" height="32" viewBox="0 0 32 32" fill="none" xmlns="http://www.w3.org/2000/svg">
<path fill-rule="evenodd" clip-rule="evenodd" d="M28.4164 0.584961H4.30554C2.40381 0.584961 0.860962 2.12661 0.860962 4.02954V28.1404C0.860962 30.0421 2.40262 31.585 4.30554 31.585H28.4164C30.3181 31.585 31.861 30.0433 31.861 28.1404V4.02954C31.861 2.12781 30.3193 0.584961 28.4164 0.584961ZM10.2337 27.2795H5.61112V12.353H10.2337V27.2795ZM7.90035 10.3988C6.38969 10.3988 5.16639 9.166 5.16639 7.64461C5.16639 6.12323 6.38969 4.89038 7.90035 4.89038C9.411 4.89038 10.6331 6.12323 10.6331 7.64461C10.6331 9.166 9.40981 10.3988 7.90035 10.3988ZM27.5555 27.2795H22.9556V19.4449C22.9556 17.2963 22.1389 16.0957 20.4387 16.0957C18.5894 16.0957 17.6224 17.3452 17.6224 19.4449V27.2795H13.1894V12.353H17.6224V14.3633C17.6224 14.3633 18.9554 11.8964 22.1234 11.8964C25.2913 11.8964 27.5555 13.8291 27.5555 17.8281V27.2795Z" fill="white"/>
</svg>
