<svg width="34" height="34" viewBox="0 0 34 34" fill="none" xmlns="http://www.w3.org/2000/svg">
<path d="M24.8349 20.4494C24.4947 20.2822 22.2834 19.2792 21.9432 19.112C21.603 18.9449 21.2628 18.9449 20.9226 19.2792C20.5823 19.6135 19.9019 20.6165 19.5617 20.9509C19.3916 21.2852 19.0514 21.2852 18.7112 21.118C17.5205 20.6165 16.3298 19.9479 15.3092 19.112C14.4587 18.2762 13.6082 17.2732 12.9278 16.2702C12.7577 15.9359 12.9278 15.6016 13.0979 15.4344C13.268 15.2672 13.4381 14.9329 13.7783 14.7657C13.9484 14.5986 14.1185 14.2642 14.1185 14.0971C14.2886 13.9299 14.2886 13.5956 14.1185 13.4284C13.9484 13.2612 13.0979 11.2552 12.7577 10.4194C12.5876 9.24925 12.2473 9.24925 11.9071 9.24925H11.0566C10.7164 9.24925 10.2061 9.58358 10.036 9.75075C9.01541 10.7537 8.5051 11.9239 8.5051 13.2612C8.6752 14.7657 9.18551 16.2702 10.2061 17.6076C12.0772 20.2822 14.4587 22.4554 17.3504 23.7927C18.2009 24.127 18.8813 24.4614 19.7318 24.6285C20.5823 24.9629 21.4329 24.9629 22.4535 24.7957C23.6442 24.6285 24.6648 23.7927 25.3452 22.7897C25.6854 22.121 25.6854 21.4524 25.5153 20.7837L24.8349 20.4494ZM29.0874 5.23726C22.4535 -1.28221 11.737 -1.28221 5.10306 5.23726C-0.340204 10.5866 -1.36082 18.7777 2.38143 25.2972L0 33.8227L9.01541 31.4823C11.5669 32.8197 14.2886 33.4883 17.0102 33.4883C26.3658 33.4883 33.8503 26.133 33.8503 16.9389C34.0204 12.5926 32.1493 8.41342 29.0874 5.23726ZM24.4947 28.6405C22.2834 29.9778 19.7318 30.8137 17.0102 30.8137C14.4587 30.8137 12.0772 30.145 9.86592 28.9748L9.35561 28.6405L4.08245 29.9778L5.44326 24.9629L5.10306 24.4614C1.02061 17.7747 3.06184 9.41642 9.69582 5.23726C16.3298 1.05811 24.8349 3.23127 28.9173 9.58358C32.9998 16.1031 31.1287 24.6285 24.4947 28.6405Z" fill="white"/>
</svg>
